# xmcd CD database file
#
# Track frame offsets:
#	183
#	16403
#	27645
#	41228
#	55338
#	69213
#	85108
#	97543
#	109660
#	122865
#	134493
#	146203
#	158978
#	171775
#	184128
#	197533
#	211015
#	221518
#
# Disc length: 3133 seconds
#
# Revision: 15
# Processed by: cddbd v1.5.2PL0 Copyright (c) Steve Scherf et al.
# Submitted via: CDex 1.51
#
DISCID=fe0c3b12
DTITLE=Various Artist - Blues Legends Volume 3
DYEAR=1991
DGENRE=Blues
TTITLE0=B. B. King - The other night Blues
TTITLE1=Bo Diddley - Bo Diddley
TTITLE2=John Lee Hooker - House Rent Boogie
TTITLE3=Muddy Waters - Rollin' Stone
TTITLE4=Howlin' Wolf - The Wolf is at your door
TTITLE5=B. B. King - Long nights
TTITLE6=Bo Diddley - Roadrunner
TTITLE7=John Lee Hooker - Boogie Woogie all night long
TTITLE8=Muddy Waters - You can't lose what you ain't never had
TTITLE9=Howlin' Wolf - Howlin' for my baby
TTITLE10=B. B. King - I never heard a man
TTITLE11=Bo Diddley - Dearest Darling
TTITLE12=john Lee Hooker - Lost a good girl
TTITLE13=Muddy Waters - Walkin' thru the park
TTITLE14=Howlin' Wolf - My baby walked off
TTITLE15=Muddy Waters - I got a rich man's woman
TTITLE16=Bo Diddley - Mona
TTITLE17=John Lee Hooker - The Syndicator
EXTD=YEAR: 1991
EXTT0=
EXTT1=
EXTT2=
EXTT3=
EXTT4=
EXTT5=
EXTT6=
EXTT7=
EXTT8=
EXTT9=
EXTT10=
EXTT11=
EXTT12=
EXTT13=
EXTT14=
EXTT15=
EXTT16=
EXTT17=
PLAYORDER=
